<svg width="28" height="33" viewBox="0 0 28 33" fill="none" xmlns="http://www.w3.org/2000/svg">
<path d="M22.7068 17.6307C22.6699 13.6324 26.0645 11.6872 26.2198 11.5966C24.2972 8.86366 21.3173 8.49026 20.2702 8.46048C17.7675 8.20369 15.3398 9.92062 14.0649 9.92062C12.7645 9.92062 10.8013 8.48529 8.68531 8.52747C5.96244 8.56841 3.41517 10.1055 2.01811 12.4923C-0.865067 17.359 1.28523 24.5108 4.04754 28.4446C5.42932 30.3712 7.04396 32.5223 9.15735 32.4466C11.2249 32.3635 11.9973 31.1614 14.4924 31.1614C16.9646 31.1614 17.6898 32.4466 19.8452 32.3983C22.0642 32.3635 23.4613 30.463 24.7947 28.519C26.3915 26.3108 27.0328 24.1362 27.0583 24.0245C27.0061 24.0071 22.7488 22.4229 22.7068 17.6307Z" fill="#403F3D"/>
<path d="M18.6352 5.87268C19.7472 4.51675 20.5081 2.67205 20.2969 0.800049C18.6874 0.86952 16.6745 1.88554 15.5154 3.21169C14.4898 4.38029 13.5737 6.29571 13.8104 8.097C15.6184 8.2285 17.4748 7.20752 18.6352 5.87268Z" fill="#403F3D"/>
</svg>
