<svg width="31" height="34" viewBox="0 0 31 34" fill="none" xmlns="http://www.w3.org/2000/svg">
<path d="M0.755796 2.20297C0.393349 2.57289 0.183594 3.14884 0.183594 3.89471V30.4994C0.183594 31.2453 0.393349 31.8212 0.755796 32.1911L0.845252 32.2723L16.1359 17.37V17.0181L0.845252 2.11575L0.755796 2.20297Z" fill="#403F3D"/>
<path d="M23.078 22.34L17.9868 17.37V17.0181L23.0842 12.0482L23.1983 12.1128L29.235 15.4617C30.9578 16.4121 30.9578 17.976 29.235 18.9324L23.1983 22.2753L23.078 22.34Z" fill="#403F3D"/>
<path d="M22.2737 23.2007L17.0622 18.1195L1.68213 33.1166C2.25433 33.7031 3.18744 33.7737 4.24856 33.1873L22.2737 23.2007Z" fill="#403F3D"/>
<path d="M22.2737 11.1876L4.24856 1.20103C3.18744 0.620579 2.25433 0.691254 1.68213 1.27772L17.0622 16.2688L22.2737 11.1876Z" fill="#403F3D"/>
</svg>
